<svg width="66" height="64" viewBox="0 0 66 64" fill="none" xmlns="http://www.w3.org/2000/svg">
<path d="M42 8.5L28 4.5" stroke="black" stroke-width="2"/>
<path d="M65 28L21 14" stroke="black" stroke-width="2"/>
<path d="M59 38L5 20" stroke="black" stroke-width="2"/>
<path d="M56 49L3 31.5" stroke="black" stroke-width="2"/>
<path d="M55 59L11 44.5" stroke="black" stroke-width="2"/>
<path d="M19.8224 61.7346L19.7631 61.751L19.7023 61.7601C19.1891 61.8367 18.7874 61.8946 18.4993 61.9337C18.2569 61.9666 18.003 62 17.866 62C15.9478 62 14.2659 61.273 12.8623 59.8776C11.4324 58.456 10.7438 56.686 10.8022 54.6389V54.6371L11.101 42.4576L2.8536 30.8292C2.3842 30.1862 2.0366 29.4998 1.8227 28.771C1.6179 28.0729 1.5136 27.3677 1.5136 26.6579C1.5136 25.1273 1.9621 23.7188 2.8465 22.4585C3.7452 21.1778 4.9791 20.2993 6.5074 19.8291L19.2581 15.5787L27.6653 4.75772C28.3691 3.82653 29.2252 3.11748 30.2351 2.6611C31.2081 2.22139 32.2312 2 33.2952 2C34.3592 2 35.3823 2.22139 36.3553 2.6611C37.3652 3.11748 38.2213 3.82652 38.9251 4.75771L47.3323 15.5787L60.0943 19.8329L60.1035 19.836C61.6245 20.3594 62.843 21.263 63.7145 22.5478C64.5642 23.8005 65 25.1776 65 26.6579C65 27.3677 64.8957 28.0729 64.6909 28.771C64.4771 29.4995 64.1297 30.1858 63.6606 30.8285L55.4893 42.3806L55.7881 54.6371L55.7882 54.6393C55.8465 56.6862 55.1579 58.4561 53.7281 59.8776C52.3245 61.273 50.6426 62 48.7244 62C48.4361 62 48.1266 61.9857 47.7974 61.9584C47.4233 61.9274 47.0623 61.8509 46.7204 61.7214L33.2952 57.9931L19.8224 61.7346Z" stroke="black" stroke-width="2"/>
</svg>
