<svg width="66" height="64" viewBox="0 0 66 64" fill="none" xmlns="http://www.w3.org/2000/svg">
<g clip-path="url(#clip0_187_1768)">
<path d="M46.1776 62.7346L46.2369 62.751L46.2977 62.7601C46.8109 62.8367 47.2126 62.8946 47.5007 62.9337C47.7431 62.9666 47.997 63 48.134 63C50.0522 63 51.7341 62.273 53.1377 60.8776C54.5676 59.456 55.2562 57.686 55.1978 55.6389C55.1978 55.6383 55.1978 55.6377 55.1978 55.6371L54.899 43.4576L63.1464 31.8292C63.6158 31.1862 63.9634 30.4998 64.1773 29.771C64.3821 29.0729 64.4864 28.3677 64.4864 27.6579C64.4864 26.1273 64.0379 24.7188 63.1535 23.4585C62.2548 22.1778 61.0209 21.2993 59.4926 20.8291L46.7419 16.5787L38.3347 5.75772C37.6309 4.82653 36.7748 4.11748 35.7649 3.6611C34.7919 3.22139 33.7688 3 32.7048 3C31.6408 3 30.6177 3.22139 29.6447 3.6611C28.6348 4.11748 27.7787 4.82652 27.0749 5.75771L18.6677 16.5787L5.90567 20.8329L5.8965 20.836C4.37549 21.3594 3.15704 22.263 2.28549 23.5478C1.43576 24.8005 1 26.1776 1 27.6579C1 28.3677 1.10431 29.0729 1.30911 29.771C1.52285 30.4995 1.87035 31.1858 2.33945 31.8285L10.5107 43.3806L10.2119 55.6371C10.2118 55.6378 10.2118 55.6385 10.2118 55.6393C10.1535 57.6862 10.8421 59.4561 12.2719 60.8776C13.6755 62.273 15.3574 63 17.2756 63C17.5639 63 17.8734 62.9857 18.2026 62.9584C18.5767 62.9274 18.9377 62.8509 19.2796 62.7214L32.7048 58.9931L46.1776 62.7346Z" stroke="black" stroke-width="2"/>
<path d="M46.1776 60.7346L46.2369 60.751L46.2977 60.7601C46.8109 60.8367 47.2126 60.8946 47.5007 60.9337C47.7431 60.9666 47.997 61 48.134 61C50.0522 61 51.7341 60.273 53.1377 58.8776C54.5676 57.456 55.2562 55.686 55.1978 53.6389C55.1978 53.6383 55.1978 53.6377 55.1978 53.6371L54.899 41.4576L63.1464 29.8292C63.6158 29.1862 63.9634 28.4998 64.1773 27.771C64.3821 27.0729 64.4864 26.3677 64.4864 25.6579C64.4864 24.1273 64.0379 22.7188 63.1535 21.4585C62.2548 20.1778 61.0209 19.2993 59.4926 18.8291L46.7419 14.5787L38.3347 3.75772C37.6309 2.82653 36.7748 2.11748 35.7649 1.6611C34.7919 1.22139 33.7688 1 32.7048 1C31.6408 1 30.6177 1.22139 29.6447 1.6611C28.6348 2.11748 27.7787 2.82652 27.0749 3.75771L18.6677 14.5787L5.90567 18.8329L5.8965 18.836C4.37549 19.3594 3.15704 20.263 2.28549 21.5478C1.43576 22.8005 1 24.1776 1 25.6579C1 26.3677 1.10431 27.0729 1.30911 27.771C1.52285 28.4995 1.87035 29.1858 2.33945 29.8285L10.5107 41.3806L10.2119 53.6371C10.2118 53.6378 10.2118 53.6385 10.2118 53.6393C10.1535 55.6862 10.8421 57.4561 12.2719 58.8776C13.6755 60.273 15.3574 61 17.2756 61C17.5639 61 17.8734 60.9857 18.2026 60.9584C18.5767 60.9274 18.9377 60.8509 19.2796 60.7214L32.7048 56.9931L46.1776 60.7346Z" fill="white" stroke="black" stroke-width="2"/>
</g>
<defs>
<clipPath id="clip0_187_1768">
<rect width="66" height="64" fill="white"/>
</clipPath>
</defs>
</svg>
