<svg width="66" height="64" viewBox="0 0 66 64" fill="none" xmlns="http://www.w3.org/2000/svg">
<path d="M46.1776 61.7346L46.2369 61.751L46.2977 61.7601C46.8109 61.8367 47.2126 61.8946 47.5007 61.9337C47.7431 61.9666 47.997 62 48.134 62C50.0522 62 51.7341 61.273 53.1377 59.8776C54.5676 58.456 55.2562 56.686 55.1978 54.6389C55.1978 54.6383 55.1978 54.6377 55.1978 54.6371L54.899 42.4576L63.1464 30.8292C63.6158 30.1862 63.9634 29.4998 64.1773 28.771C64.3821 28.0729 64.4864 27.3677 64.4864 26.6579C64.4864 25.1273 64.0379 23.7188 63.1535 22.4585C62.2548 21.1778 61.0209 20.2993 59.4926 19.8291L46.7419 15.5787L38.3347 4.75772C37.6309 3.82653 36.7748 3.11748 35.7649 2.6611C34.7919 2.22139 33.7688 2 32.7048 2C31.6408 2 30.6177 2.22139 29.6447 2.6611C28.6348 3.11748 27.7787 3.82652 27.0749 4.75771L18.6677 15.5787L5.90567 19.8329L5.8965 19.836C4.37549 20.3594 3.15704 21.263 2.28549 22.5478C1.43576 23.8005 1 25.1776 1 26.6579C1 27.3677 1.10431 28.0729 1.30911 28.771C1.52285 29.4995 1.87035 30.1858 2.33945 30.8285L10.5107 42.3806L10.2119 54.6371C10.2118 54.6378 10.2118 54.6385 10.2118 54.6393C10.1535 56.6862 10.8421 58.4561 12.2719 59.8776C13.6755 61.273 15.3574 62 17.2756 62C17.5639 62 17.8734 61.9857 18.2026 61.9584C18.5767 61.9274 18.9377 61.8509 19.2796 61.7214L32.7048 57.9931L46.1776 61.7346Z" stroke="black" stroke-width="2"/>
</svg>
