<svg width="116" height="116" viewBox="0 0 116 116" fill="none" xmlns="http://www.w3.org/2000/svg">
<g clip-path="url(#clip0_206_270)">
<path d="M34.8391 111.894L34.7349 111.924L34.628 111.94C33.7261 112.079 33.02 112.184 32.5137 112.255C32.0876 112.314 31.6414 112.375 31.4006 112.375C28.0292 112.375 25.0732 111.057 22.6062 108.528C20.0931 105.952 18.8828 102.743 18.9854 99.033V99.0297L19.5106 76.9544L5.01517 55.8779C4.19017 54.7125 3.57924 53.4684 3.20329 52.1474C2.84334 50.8821 2.66003 49.604 2.66003 48.3174C2.66003 45.5432 3.4483 42.9903 5.0027 40.706C6.58223 38.3848 8.7509 36.7925 11.437 35.9402L33.8473 28.2364L48.6236 8.62337C49.8606 6.93559 51.3653 5.65043 53.1402 4.82324C54.8504 4.02627 56.6485 3.625 58.5186 3.625C60.3887 3.625 62.1868 4.02627 63.897 4.82324C65.6719 5.65043 67.1766 6.93557 68.4136 8.62335L83.1899 28.2364L105.62 35.9471L105.636 35.9528C108.31 36.9014 110.451 38.5392 111.983 40.8679C113.476 43.1384 114.242 45.6344 114.242 48.3174C114.242 49.604 114.059 50.8821 113.699 52.1474C113.323 53.4678 112.712 54.7118 111.888 55.8767L97.5264 76.8148L98.0516 99.0297L98.0518 99.0337C98.1542 102.744 96.9439 105.952 94.431 108.528C91.964 111.057 89.008 112.375 85.6366 112.375C85.1299 112.375 84.5859 112.349 84.0073 112.3C83.3498 112.243 82.7153 112.105 82.1144 111.87L58.5186 105.112L34.8391 111.894Z" fill="#FFCD00" stroke="black" stroke-width="6"/>
</g>
<defs>
<clipPath id="clip0_206_270">
<rect width="116" height="116" fill="white" transform="matrix(-1 0 0 1 116 0)"/>
</clipPath>
</defs>
</svg>
